<svg width="121" height="126" viewBox="0 0 121 126" fill="none" xmlns="http://www.w3.org/2000/svg">
<g filter="url(#filter0_d_336_5045)">
<rect x="4" width="113" height="118" rx="56.5" fill="#F09030"/>
</g>
<path d="M84.0779 90.4335L42.9427 41.804L85.9324 88.3899L84.0779 90.4335Z" fill="#BA5D00"/>
<path d="M65.2218 57.184C69.6239 51.4213 70.4644 43.1888 70.6291 35.8474L70.7677 38.7433C70.8631 44.5835 70.3518 50.6174 67.9688 55.9152C67.5442 56.8256 67.1282 57.6585 66.4523 58.5496L65.2305 57.184H65.2218Z" fill="#BA5D00"/>
<path d="M69 61.6876C74.8579 61.6295 80.4385 58.443 85.4038 55.1694C86.6776 54.2881 89.1733 52.3994 90.3691 51.4019L88.0468 53.5423C83.2721 57.6682 78.0034 61.4551 72.0762 63.1113C71.0537 63.3825 70.0832 63.6052 68.896 63.6246L69 61.6876Z" fill="#BA5D00"/>
<path d="M73.8354 73.2228C91.2704 73.678 98.6014 59.1017 97.6829 41.2324L98.1768 41.9007C92.4922 40.8644 86.6083 42.4334 81.3917 44.9709C82.9602 34.6755 76.5477 25.3002 69.4506 19.5666L70.8024 19.5085C69.6759 20.632 68.5494 21.8329 67.4749 23.063C65.3778 25.4843 63.2635 28.0315 61.7383 30.9177C61.0018 32.3123 60.3865 33.8523 60.4558 35.1404L60.6118 38.0654C56.6777 33.2518 51.0624 30.3753 45.3258 29.2809C42.0849 28.5351 39.026 28.8063 35.7591 28.7385C34.234 28.6901 32.7089 28.5545 31.2184 28.2349L31.253 27.9927C36.0277 28.4673 40.7678 26.9758 45.5251 27.7893C50.8458 28.477 56.0191 30.5109 60.1699 34.4528L58.4454 35.3632C58.1681 28.8354 65.9758 21.0581 70.0832 17C75.7591 21.8039 80.8198 28.0702 82.5962 35.9637C83.1508 38.4818 83.4541 41.0194 83.1248 43.7409L82.0416 42.7627C83.3414 42.2107 84.6499 41.6877 86.0018 41.3002C90.2132 40.0702 94.6326 39.6053 98.9394 40.6223L98.948 41.184C99.4073 53.4358 95.7851 67.1307 84.5546 71.7119C81.1404 73.1646 77.4489 73.7651 73.8094 73.4552L73.8354 73.2131V73.2228Z" fill="#BA5D00"/>
<path d="M70.6898 76.7191C70.8804 97.9491 56.721 106.763 39.234 104.729C38.5494 99.8474 39.234 94.9177 40.6291 90.2881C41.0711 88.8063 41.6256 87.3729 42.2149 85.9491L42.9861 87.1695C32.8821 87.7022 24.4333 79.8281 19 71.0145C23.3501 66.3075 27.8995 61.339 33.792 59.2179C34.6586 58.9661 35.6031 58.8014 36.6343 58.9661L35.6638 61.0097C31.0884 54.6174 29.6586 46.2106 30.1612 38.23C30.6551 34.9467 31.0797 31.5278 30.9324 28.1864L30.8977 27.4697C34.3726 28.0315 37.9341 28.0218 41.4437 28.0702L41.4523 28.3123C38.9567 28.5835 36.4437 28.7482 33.9307 28.7869C33.0815 28.7869 32.2582 28.7966 31.383 28.7191L31.9636 28.0896C32.4749 32.5932 31.5823 36.8935 31.721 41.1743C31.8769 48.7675 34.3553 56.4189 39.208 61.8135L36.305 61.3874C33.5927 61.1646 30.6638 63.4891 28.3674 65.1743C25.8111 67.1889 23.3674 69.523 21.1057 71.9249L21.227 70.4625C25.9931 78.5109 33.792 85.7361 42.8215 85.4746L44.156 85.3971C42.1196 89.7942 40.6031 94.569 40.3172 99.5375C40.2218 101.01 40.2218 102.55 40.3865 103.944L39.8406 103.383C56.8076 105.513 70.2392 97.2421 70.4905 76.7191L70.7071 76.6997L70.6898 76.7191Z" fill="#BA5D00"/>
<path d="M58.3848 68.8645C52.3796 73.2906 44.7366 73.1163 37.8649 72.2349C43.7488 72.4964 49.9966 72.0219 55.2739 68.8935C55.9845 68.4674 56.7297 67.9347 57.2323 67.4214L58.3848 68.8645Z" fill="#BA5D00"/>
<path d="M62.7695 71.8765C61.981 78.8111 58.3588 84.7384 54.624 90.1041C53.6794 91.4019 51.669 93.9297 50.6292 95.1404L52.5096 92.5157C56.0451 87.2469 59.312 81.4164 60.6638 74.9661C60.8805 73.9394 61.0364 72.7966 61.0364 71.8861H62.7695V71.8765Z" fill="#BA5D00"/>
<defs>
<filter id="filter0_d_336_5045" x="0" y="0" width="121" height="126" filterUnits="userSpaceOnUse" color-interpolation-filters="sRGB">
<feFlood flood-opacity="0" result="BackgroundImageFix"/>
<feColorMatrix in="SourceAlpha" type="matrix" values="0 0 0 0 0 0 0 0 0 0 0 0 0 0 0 0 0 0 127 0" result="hardAlpha"/>
<feOffset dy="4"/>
<feGaussianBlur stdDeviation="2"/>
<feComposite in2="hardAlpha" operator="out"/>
<feColorMatrix type="matrix" values="0 0 0 0 0 0 0 0 0 0 0 0 0 0 0 0 0 0 0.25 0"/>
<feBlend mode="normal" in2="BackgroundImageFix" result="effect1_dropShadow_336_5045"/>
<feBlend mode="normal" in="SourceGraphic" in2="effect1_dropShadow_336_5045" result="shape"/>
</filter>
</defs>
</svg>
