<svg width="106" height="113" viewBox="0 0 106 113" fill="none" xmlns="http://www.w3.org/2000/svg">
<path opacity="0.7" d="M0 0H106V113H0V0Z" fill="#DB6D00" fill-opacity="0.25"/>
<path d="M80.2369 85.4219L35.8408 36.7998L82.2383 83.3786L80.2369 85.4219Z" fill="#DB6D00"/>
<path d="M59.8857 52.1775C64.6368 46.4157 65.544 38.1845 65.7217 30.8442L65.8713 33.7397C65.9742 39.579 65.4224 45.6119 62.8505 50.9089C62.3922 51.8192 61.9433 52.652 61.2138 53.5429L59.8951 52.1775H59.8857Z" fill="#DB6D00"/>
<path d="M63.9633 56.6806C70.2856 56.6225 76.3085 53.4366 81.6675 50.1635C83.0423 49.2822 85.7358 47.3939 87.0265 46.3965L84.52 48.5366C79.3668 52.6619 73.6805 56.4482 67.2834 58.1041C66.1798 58.3753 65.1324 58.598 63.8511 58.6174L63.9633 56.6806Z" fill="#DB6D00"/>
<path d="M69.1819 68.2141C87.999 68.6692 95.9112 54.0952 94.9198 36.2287L95.4529 36.8969C89.3177 35.8607 82.9674 37.4295 77.3372 39.9666C79.03 29.6728 72.1092 20.299 64.4495 14.5662L65.9085 14.5081C64.6927 15.6314 63.4769 16.8322 62.3172 18.062C60.0539 20.483 57.7719 23.0298 56.1259 25.9155C55.3309 27.31 54.6669 28.8497 54.7417 30.1376L54.91 33.0621C50.664 28.2493 44.6036 25.3732 38.4123 24.279C34.9145 23.5333 31.6131 23.8045 28.0872 23.7367C26.4412 23.6883 24.7951 23.5527 23.1865 23.2331L23.2239 22.991C28.3771 23.4655 33.4929 21.9743 38.6274 22.7877C44.3698 23.4752 49.9532 25.5088 54.4331 29.4501L52.5719 30.3604C52.2727 23.8335 60.6992 16.0575 65.1323 12C71.2581 16.8031 76.72 23.0685 78.6372 30.9608C79.2358 33.4785 79.5631 36.0157 79.2077 38.7368L78.0387 37.7587C79.4415 37.2068 80.8538 36.6838 82.3127 36.2965C86.858 35.0667 91.6278 34.6018 96.276 35.6186L96.2853 36.1803C96.781 48.4302 92.8717 62.123 80.7509 66.7034C77.066 68.156 73.0819 68.7564 69.1538 68.4465L69.1819 68.2044V68.2141Z" fill="#DB6D00"/>
<path d="M65.7874 71.7098C65.9931 92.9366 50.7112 101.749 31.838 99.7152C31.0991 94.8346 31.838 89.9056 33.3437 85.2767C33.8207 83.7951 34.4193 82.3619 35.0552 80.9384L35.8876 82.1586C24.9826 82.6912 15.864 74.8183 10 66.0061C14.6949 61.2998 19.605 56.3321 25.9646 54.2113C26.8999 53.9595 27.9193 53.7949 29.0322 53.9595L27.9848 56.0028C23.0467 49.6115 21.5035 41.2061 22.046 33.2267C22.579 29.9439 23.0373 26.5255 22.8783 23.1846L22.8409 22.468C26.5913 23.0297 30.4351 23.02 34.2229 23.0684L34.2322 23.3105C31.5387 23.5816 28.8265 23.7463 26.1143 23.785C25.1977 23.785 24.3093 23.7947 23.3647 23.7172L23.9913 23.0878C24.5431 27.5907 23.5798 31.8903 23.7294 36.1705C23.8977 43.7626 26.5725 51.4127 31.8099 56.8066L28.6768 56.3805C25.7495 56.1577 22.5884 58.4818 20.11 60.1668C17.351 62.181 14.7136 64.5148 12.2726 66.9164L12.4036 65.4541C17.5474 73.5013 25.9646 80.7254 35.7099 80.4639L37.1502 80.3865C34.9523 84.7829 33.3157 89.557 33.007 94.5247C32.9042 95.9966 32.9042 97.5364 33.0819 98.9308L32.4926 98.3692C50.8048 100.5 65.3011 92.2297 65.5723 71.7098L65.8061 71.6905L65.7874 71.7098Z" fill="#DB6D00"/>
<path d="M52.5065 63.8565C46.0252 68.2819 37.7764 68.1076 30.3599 67.2264C36.7102 67.4879 43.4533 67.0134 49.1489 63.8855C49.9158 63.4594 50.7202 62.9268 51.2626 62.4136L52.5065 63.8565Z" fill="#DB6D00"/>
<path d="M57.239 66.8679C56.3879 73.8015 52.4786 79.7279 48.4477 85.0927C47.4283 86.3903 45.2585 88.9178 44.1362 90.1283L46.1657 87.504C49.9815 82.236 53.5074 76.4064 54.9664 69.957C55.2002 68.9306 55.3685 67.7879 55.3685 66.8776H57.239V66.8679Z" fill="#DB6D00"/>
</svg>
