<svg width="121" height="113" viewBox="0 0 121 113" fill="none" xmlns="http://www.w3.org/2000/svg">
<rect width="121" height="113" fill="#EB6D15" fill-opacity="0.25"/>
<g clip-path="url(#clip0_12_18538)">
<path d="M83.3404 83.755L40.1484 36.2307L85.2875 81.7579L83.3404 83.755Z" fill="#DB6D00"/>
<path d="M63.542 51.2613C68.1642 45.6296 69.0468 37.5842 69.2196 30.4097L69.3652 33.2397C69.4653 38.9472 68.9285 44.844 66.4263 50.0214C65.9805 50.9111 65.5437 51.7251 64.834 52.5959L63.5511 51.2613H63.542Z" fill="#DB6D00"/>
<path d="M67.5086 55.6625C73.6594 55.6058 79.519 52.4917 84.7326 49.2925C86.0701 48.4312 88.6906 46.5855 89.9462 45.6106L87.5077 47.7024C82.4943 51.7345 76.9622 55.4354 70.7387 57.0539C69.665 57.3189 68.6459 57.5366 67.3994 57.5556L67.5086 55.6625Z" fill="#DB6D00"/>
<path d="M72.5857 66.9357C90.8925 67.3805 98.5901 53.1356 97.6256 35.6724L98.1442 36.3255C92.1754 35.3128 85.9973 36.8461 80.5199 39.326C82.1667 29.2645 75.4336 20.1023 67.9817 14.499L69.4011 14.4422C68.2183 15.5401 67.0355 16.7138 65.9072 17.9159C63.7053 20.2822 61.4852 22.7715 59.8838 25.5921C59.1104 26.9551 58.4644 28.46 58.5372 29.7189L58.701 32.5773C54.5701 27.8732 48.6741 25.062 42.6507 23.9925C39.2478 23.2637 36.0359 23.5287 32.6057 23.4624C31.0043 23.4151 29.4029 23.2826 27.8379 22.9703L27.8743 22.7336C32.8877 23.1974 37.8648 21.7398 42.86 22.5349C48.4466 23.2069 53.8786 25.1946 58.2369 29.0469L56.4263 29.9366C56.1351 23.5571 64.3331 15.9566 68.6459 11.9907C74.6057 16.6854 79.9193 22.8093 81.7846 30.5234C82.3669 32.9843 82.6854 35.4642 82.3396 38.1239L81.2023 37.1679C82.5671 36.6284 83.941 36.1173 85.3604 35.7387C89.7824 34.5366 94.4228 34.0823 98.9449 35.0761L98.954 35.6251C99.4362 47.5985 95.633 60.9821 83.8409 65.4591C80.256 66.8789 76.3799 67.4657 72.5584 67.1628L72.5857 66.9262V66.9357Z" fill="#DB6D00"/>
<path d="M69.2831 70.3525C69.4832 91.1 54.6158 99.7133 36.2545 97.7256C35.5357 92.9552 36.2545 88.1374 37.7194 83.6131C38.1834 82.165 38.7657 80.7641 39.3844 79.3727L40.1942 80.5654C29.585 81.0859 20.7137 73.3908 15.0088 64.7775C19.5764 60.1775 24.3532 55.3219 30.5404 53.249C31.4503 53.003 32.4421 52.842 33.5248 53.003L32.5058 55.0001C27.7016 48.7531 26.2003 40.5374 26.728 32.7381C27.2467 29.5295 27.6925 26.1883 27.5378 22.9228L27.5014 22.2224C31.15 22.7714 34.8896 22.7619 38.5746 22.8092L38.5837 23.0459C35.9633 23.3109 33.3246 23.4718 30.686 23.5097C29.7943 23.5097 28.9299 23.5191 28.011 23.4434L28.6206 22.8282C29.1574 27.2295 28.2202 31.432 28.3658 35.6155C28.5296 43.0362 31.1318 50.5136 36.2272 55.7857L33.1791 55.3692C30.3311 55.1515 27.2558 57.4232 24.8446 59.0701C22.1604 61.0388 19.5946 63.3199 17.2198 65.6673L17.3472 64.238C22.3515 72.1035 30.5404 79.1645 40.0214 78.909L41.4226 78.8332C39.2844 83.1304 37.6921 87.7967 37.3918 92.6523C37.2917 94.091 37.2917 95.5959 37.4646 96.9589L36.8914 96.4099C54.7068 98.4923 68.8099 90.4091 69.0738 70.3525L69.3013 70.3336L69.2831 70.3525Z" fill="#DB6D00"/>
<path d="M56.3623 62.6762C50.0569 67.0017 42.0317 66.8314 34.8164 65.97C40.9945 66.2256 47.5547 65.7618 53.0959 62.7046C53.842 62.2881 54.6245 61.7675 55.1522 61.2659L56.3623 62.6762Z" fill="#DB6D00"/>
<path d="M60.9671 65.6199C60.1391 72.3969 56.3358 78.1895 52.4143 83.4332C51.4225 84.7015 49.3116 87.1719 48.2197 88.3551L50.1942 85.79C53.9065 80.641 57.3367 74.943 58.7561 68.6392C58.9836 67.6359 59.1474 66.5191 59.1474 65.6293H60.9671V65.6199Z" fill="#DB6D00"/>
</g>
<defs>
<clipPath id="clip0_12_18538">
<rect width="84" height="86" fill="white" transform="translate(15 12)"/>
</clipPath>
</defs>
</svg>
