<svg width="56" height="50" viewBox="0 0 56 50" fill="none" xmlns="http://www.w3.org/2000/svg">
<rect x="0.892578" y="0.301514" width="54.1385" height="48.7654" fill="#F5F1E8" fill-opacity="0.8"/>
<path d="M15.6237 32.6086C15.5937 32.6586 15.5604 32.6969 15.5237 32.7236C15.4904 32.7469 15.4487 32.7586 15.3987 32.7586C15.342 32.7586 15.2754 32.7302 15.1987 32.6736C15.122 32.6169 15.0254 32.5552 14.9087 32.4886C14.7954 32.4186 14.657 32.3552 14.4937 32.2986C14.3337 32.2419 14.1387 32.2136 13.9087 32.2136C13.692 32.2136 13.5004 32.2436 13.3337 32.3036C13.1704 32.3602 13.032 32.4386 12.9187 32.5386C12.8087 32.6386 12.7254 32.7569 12.6687 32.8936C12.612 33.0269 12.5837 33.1719 12.5837 33.3286C12.5837 33.5286 12.632 33.6952 12.7287 33.8286C12.8287 33.9586 12.9587 34.0702 13.1187 34.1636C13.282 34.2569 13.4654 34.3386 13.6687 34.4086C13.8754 34.4752 14.0854 34.5452 14.2987 34.6186C14.5154 34.6919 14.7254 34.7752 14.9287 34.8686C15.1354 34.9586 15.3187 35.0736 15.4787 35.2136C15.642 35.3536 15.772 35.5252 15.8687 35.7286C15.9687 35.9319 16.0187 36.1819 16.0187 36.4786C16.0187 36.7919 15.9654 37.0869 15.8587 37.3636C15.752 37.6369 15.5954 37.8752 15.3887 38.0786C15.1854 38.2819 14.9337 38.4419 14.6337 38.5586C14.337 38.6752 13.9987 38.7336 13.6187 38.7336C13.152 38.7336 12.7287 38.6502 12.3487 38.4836C11.9687 38.3136 11.6437 38.0852 11.3737 37.7986L11.6537 37.3386C11.6804 37.3019 11.712 37.2719 11.7487 37.2486C11.7887 37.2219 11.832 37.2086 11.8787 37.2086C11.922 37.2086 11.9704 37.2269 12.0237 37.2636C12.0804 37.2969 12.1437 37.3402 12.2137 37.3936C12.2837 37.4469 12.3637 37.5052 12.4537 37.5686C12.5437 37.6319 12.6454 37.6902 12.7587 37.7436C12.8754 37.7969 13.007 37.8419 13.1537 37.8786C13.3004 37.9119 13.4654 37.9286 13.6487 37.9286C13.8787 37.9286 14.0837 37.8969 14.2637 37.8336C14.4437 37.7702 14.5954 37.6819 14.7187 37.5686C14.8454 37.4519 14.942 37.3136 15.0087 37.1536C15.0754 36.9936 15.1087 36.8152 15.1087 36.6186C15.1087 36.4019 15.0587 36.2252 14.9587 36.0886C14.862 35.9486 14.7337 35.8319 14.5737 35.7386C14.4137 35.6452 14.2304 35.5669 14.0237 35.5036C13.817 35.4369 13.607 35.3702 13.3937 35.3036C13.1804 35.2336 12.9704 35.1536 12.7637 35.0636C12.557 34.9736 12.3737 34.8569 12.2137 34.7136C12.0537 34.5702 11.9237 34.3919 11.8237 34.1786C11.727 33.9619 11.6787 33.6952 11.6787 33.3786C11.6787 33.1252 11.727 32.8802 11.8237 32.6436C11.9237 32.4069 12.067 32.1969 12.2537 32.0136C12.4437 31.8302 12.6754 31.6836 12.9487 31.5736C13.2254 31.4636 13.542 31.4086 13.8987 31.4086C14.2987 31.4086 14.662 31.4719 14.9887 31.5986C15.3187 31.7252 15.6087 31.9086 15.8587 32.1486L15.6237 32.6086ZM17.966 37.4336C18.1293 37.6536 18.3076 37.8086 18.501 37.8986C18.6943 37.9886 18.911 38.0336 19.151 38.0336C19.6243 38.0336 19.9876 37.8652 20.241 37.5286C20.4943 37.1919 20.621 36.7119 20.621 36.0886C20.621 35.7586 20.591 35.4752 20.531 35.2386C20.4743 35.0019 20.391 34.8086 20.281 34.6586C20.171 34.5052 20.036 34.3936 19.876 34.3236C19.716 34.2536 19.5343 34.2186 19.331 34.2186C19.041 34.2186 18.786 34.2852 18.566 34.4186C18.3493 34.5519 18.1493 34.7402 17.966 34.9836V37.4336ZM17.921 34.3736C18.1343 34.1102 18.381 33.8986 18.661 33.7386C18.941 33.5786 19.261 33.4986 19.621 33.4986C19.9143 33.4986 20.1793 33.5552 20.416 33.6686C20.6526 33.7786 20.8543 33.9436 21.021 34.1636C21.1876 34.3802 21.316 34.6502 21.406 34.9736C21.496 35.2969 21.541 35.6686 21.541 36.0886C21.541 36.4619 21.491 36.8102 21.391 37.1336C21.291 37.4536 21.146 37.7319 20.956 37.9686C20.7693 38.2019 20.5393 38.3869 20.266 38.5236C19.996 38.6569 19.691 38.7236 19.351 38.7236C19.041 38.7236 18.7743 38.6719 18.551 38.5686C18.331 38.4619 18.136 38.3152 17.966 38.1286V40.3686H17.071V33.5886H17.606C17.7326 33.5886 17.811 33.6502 17.841 33.7736L17.921 34.3736ZM23.6164 33.5886V38.6536H22.7264V33.5886H23.6164ZM23.8064 31.9986C23.8064 32.0852 23.7881 32.1669 23.7514 32.2436C23.7181 32.3169 23.6714 32.3836 23.6114 32.4436C23.5548 32.5002 23.4864 32.5452 23.4064 32.5786C23.3298 32.6119 23.2481 32.6286 23.1614 32.6286C23.0748 32.6286 22.9931 32.6119 22.9164 32.5786C22.8431 32.5452 22.7781 32.5002 22.7214 32.4436C22.6648 32.3836 22.6198 32.3169 22.5864 32.2436C22.5531 32.1669 22.5364 32.0852 22.5364 31.9986C22.5364 31.9119 22.5531 31.8302 22.5864 31.7536C22.6198 31.6736 22.6648 31.6052 22.7214 31.5486C22.7781 31.4886 22.8431 31.4419 22.9164 31.4086C22.9931 31.3752 23.0748 31.3586 23.1614 31.3586C23.2481 31.3586 23.3298 31.3752 23.4064 31.4086C23.4864 31.4419 23.5548 31.4886 23.6114 31.5486C23.6714 31.6052 23.7181 31.6736 23.7514 31.7536C23.7881 31.8302 23.8064 31.9119 23.8064 31.9986ZM28.0288 34.4236C27.9888 34.4969 27.9271 34.5336 27.8438 34.5336C27.7938 34.5336 27.7371 34.5152 27.6738 34.4786C27.6104 34.4419 27.5321 34.4019 27.4388 34.3586C27.3488 34.3119 27.2404 34.2702 27.1138 34.2336C26.9871 34.1936 26.8371 34.1736 26.6638 34.1736C26.5138 34.1736 26.3788 34.1936 26.2588 34.2336C26.1388 34.2702 26.0354 34.3219 25.9488 34.3886C25.8654 34.4552 25.8004 34.5336 25.7538 34.6236C25.7104 34.7102 25.6888 34.8052 25.6888 34.9086C25.6888 35.0386 25.7254 35.1469 25.7988 35.2336C25.8754 35.3202 25.9754 35.3952 26.0988 35.4586C26.2221 35.5219 26.3621 35.5786 26.5188 35.6286C26.6754 35.6752 26.8354 35.7269 26.9988 35.7836C27.1654 35.8369 27.3271 35.8969 27.4838 35.9636C27.6404 36.0302 27.7804 36.1136 27.9038 36.2136C28.0271 36.3136 28.1254 36.4369 28.1988 36.5836C28.2754 36.7269 28.3138 36.9002 28.3138 37.1036C28.3138 37.3369 28.2721 37.5536 28.1888 37.7536C28.1054 37.9502 27.9821 38.1219 27.8188 38.2686C27.6554 38.4119 27.4554 38.5252 27.2188 38.6086C26.9821 38.6919 26.7088 38.7336 26.3988 38.7336C26.0454 38.7336 25.7254 38.6769 25.4388 38.5636C25.1521 38.4469 24.9088 38.2986 24.7088 38.1186L24.9188 37.7786C24.9454 37.7352 24.9771 37.7019 25.0138 37.6786C25.0504 37.6552 25.0971 37.6436 25.1538 37.6436C25.2138 37.6436 25.2771 37.6669 25.3438 37.7136C25.4104 37.7602 25.4904 37.8119 25.5838 37.8686C25.6804 37.9252 25.7971 37.9769 25.9338 38.0236C26.0704 38.0702 26.2404 38.0936 26.4438 38.0936C26.6171 38.0936 26.7688 38.0719 26.8988 38.0286C27.0288 37.9819 27.1371 37.9202 27.2238 37.8436C27.3104 37.7669 27.3738 37.6786 27.4138 37.5786C27.4571 37.4786 27.4788 37.3719 27.4788 37.2586C27.4788 37.1186 27.4404 37.0036 27.3638 36.9136C27.2904 36.8202 27.1921 36.7419 27.0688 36.6786C26.9454 36.6119 26.8038 36.5552 26.6438 36.5086C26.4871 36.4586 26.3254 36.4069 26.1588 36.3536C25.9954 36.3002 25.8338 36.2402 25.6738 36.1736C25.5171 36.1036 25.3771 36.0169 25.2538 35.9136C25.1304 35.8102 25.0304 35.6836 24.9538 35.5336C24.8804 35.3802 24.8438 35.1952 24.8438 34.9786C24.8438 34.7852 24.8838 34.6002 24.9638 34.4236C25.0438 34.2436 25.1604 34.0869 25.3138 33.9536C25.4671 33.8169 25.6554 33.7086 25.8788 33.6286C26.1021 33.5486 26.3571 33.5086 26.6438 33.5086C26.9771 33.5086 27.2754 33.5619 27.5388 33.6686C27.8054 33.7719 28.0354 33.9152 28.2288 34.0986L28.0288 34.4236ZM32.795 35.5686C32.795 35.3619 32.765 35.1736 32.705 35.0036C32.6483 34.8302 32.5633 34.6819 32.45 34.5586C32.34 34.4319 32.205 34.3352 32.045 34.2686C31.885 34.1986 31.7033 34.1636 31.5 34.1636C31.0733 34.1636 30.735 34.2886 30.485 34.5386C30.2383 34.7852 30.085 35.1286 30.025 35.5686H32.795ZM33.515 37.9436C33.405 38.0769 33.2733 38.1936 33.12 38.2936C32.9666 38.3902 32.8016 38.4702 32.625 38.5336C32.4516 38.5969 32.2716 38.6436 32.085 38.6736C31.8983 38.7069 31.7133 38.7236 31.53 38.7236C31.18 38.7236 30.8566 38.6652 30.56 38.5486C30.2666 38.4286 30.0116 38.2552 29.795 38.0286C29.5816 37.7986 29.415 37.5152 29.295 37.1786C29.175 36.8419 29.115 36.4552 29.115 36.0186C29.115 35.6652 29.1683 35.3352 29.275 35.0286C29.385 34.7219 29.5416 34.4569 29.745 34.2336C29.9483 34.0069 30.1966 33.8302 30.49 33.7036C30.7833 33.5736 31.1133 33.5086 31.48 33.5086C31.7833 33.5086 32.0633 33.5602 32.32 33.6636C32.58 33.7636 32.8033 33.9102 32.99 34.1036C33.18 34.2936 33.3283 34.5302 33.435 34.8136C33.5416 35.0936 33.595 35.4136 33.595 35.7736C33.595 35.9136 33.58 36.0069 33.55 36.0536C33.52 36.1002 33.4633 36.1236 33.38 36.1236H29.995C30.005 36.4436 30.0483 36.7219 30.125 36.9586C30.205 37.1952 30.315 37.3936 30.455 37.5536C30.595 37.7102 30.7616 37.8286 30.955 37.9086C31.1483 37.9852 31.365 38.0236 31.605 38.0236C31.8283 38.0236 32.02 37.9986 32.18 37.9486C32.3433 37.8952 32.4833 37.8386 32.6 37.7786C32.7166 37.7186 32.8133 37.6636 32.89 37.6136C32.97 37.5602 33.0383 37.5336 33.095 37.5336C33.1683 37.5336 33.225 37.5619 33.265 37.6186L33.515 37.9436ZM35.6082 31.2886V38.6536H34.7182V31.2886H35.6082ZM37.9914 33.5886V38.6536H37.1014V33.5886H37.9914ZM38.1814 31.9986C38.1814 32.0852 38.1631 32.1669 38.1264 32.2436C38.0931 32.3169 38.0464 32.3836 37.9864 32.4436C37.9298 32.5002 37.8614 32.5452 37.7814 32.5786C37.7048 32.6119 37.6231 32.6286 37.5364 32.6286C37.4498 32.6286 37.3681 32.6119 37.2914 32.5786C37.2181 32.5452 37.1531 32.5002 37.0964 32.4436C37.0398 32.3836 36.9948 32.3169 36.9614 32.2436C36.9281 32.1669 36.9114 32.0852 36.9114 31.9986C36.9114 31.9119 36.9281 31.8302 36.9614 31.7536C36.9948 31.6736 37.0398 31.6052 37.0964 31.5486C37.1531 31.4886 37.2181 31.4419 37.2914 31.4086C37.3681 31.3752 37.4498 31.3586 37.5364 31.3586C37.6231 31.3586 37.7048 31.3752 37.7814 31.4086C37.8614 31.4419 37.9298 31.4886 37.9864 31.5486C38.0464 31.6052 38.0931 31.6736 38.1264 31.7536C38.1631 31.8302 38.1814 31.9119 38.1814 31.9986ZM41.2188 36.1786C41.3988 36.1786 41.5571 36.1536 41.6938 36.1036C41.8304 36.0536 41.9454 35.9836 42.0388 35.8936C42.1321 35.8036 42.2021 35.6969 42.2488 35.5736C42.2954 35.4469 42.3188 35.3086 42.3188 35.1586C42.3188 34.8486 42.2238 34.6019 42.0338 34.4186C41.8471 34.2352 41.5754 34.1436 41.2188 34.1436C40.8588 34.1436 40.5838 34.2352 40.3938 34.4186C40.2071 34.6019 40.1138 34.8486 40.1138 35.1586C40.1138 35.3086 40.1371 35.4469 40.1838 35.5736C40.2338 35.6969 40.3054 35.8036 40.3988 35.8936C40.4921 35.9836 40.6071 36.0536 40.7438 36.1036C40.8804 36.1536 41.0388 36.1786 41.2188 36.1786ZM42.8238 38.9286C42.8238 38.8052 42.7888 38.7052 42.7188 38.6286C42.6488 38.5519 42.5538 38.4919 42.4338 38.4486C42.3171 38.4052 42.1804 38.3752 42.0238 38.3586C41.8671 38.3386 41.7004 38.3236 41.5238 38.3136C41.3504 38.3036 41.1738 38.2936 40.9938 38.2836C40.8138 38.2736 40.6404 38.2569 40.4738 38.2336C40.2871 38.3202 40.1338 38.4302 40.0138 38.5636C39.8971 38.6936 39.8388 38.8469 39.8388 39.0236C39.8388 39.1369 39.8671 39.2419 39.9238 39.3386C39.9838 39.4386 40.0738 39.5236 40.1938 39.5936C40.3138 39.6669 40.4638 39.7236 40.6438 39.7636C40.8271 39.8069 41.0421 39.8286 41.2888 39.8286C41.5288 39.8286 41.7438 39.8069 41.9338 39.7636C42.1238 39.7202 42.2838 39.6586 42.4138 39.5786C42.5471 39.4986 42.6488 39.4036 42.7188 39.2936C42.7888 39.1836 42.8238 39.0619 42.8238 38.9286ZM43.7288 33.7886V34.1186C43.7288 34.2286 43.6588 34.2986 43.5188 34.3286L42.9438 34.4036C43.0571 34.6236 43.1138 34.8669 43.1138 35.1336C43.1138 35.3802 43.0654 35.6052 42.9688 35.8086C42.8754 36.0086 42.7454 36.1802 42.5788 36.3236C42.4121 36.4669 42.2121 36.5769 41.9788 36.6536C41.7454 36.7302 41.4921 36.7686 41.2188 36.7686C40.9821 36.7686 40.7588 36.7402 40.5488 36.6836C40.4421 36.7502 40.3604 36.8219 40.3038 36.8986C40.2471 36.9719 40.2188 37.0469 40.2188 37.1236C40.2188 37.2436 40.2671 37.3352 40.3638 37.3986C40.4638 37.4586 40.5938 37.5019 40.7538 37.5286C40.9138 37.5552 41.0954 37.5719 41.2988 37.5786C41.5054 37.5852 41.7154 37.5969 41.9288 37.6136C42.1454 37.6269 42.3554 37.6519 42.5588 37.6886C42.7654 37.7252 42.9488 37.7852 43.1088 37.8686C43.2688 37.9519 43.3971 38.0669 43.4938 38.2136C43.5938 38.3602 43.6438 38.5502 43.6438 38.7836C43.6438 39.0002 43.5888 39.2102 43.4788 39.4136C43.3721 39.6169 43.2171 39.7969 43.0138 39.9536C42.8104 40.1136 42.5604 40.2402 42.2638 40.3336C41.9704 40.4302 41.6388 40.4786 41.2688 40.4786C40.8988 40.4786 40.5754 40.4419 40.2988 40.3686C40.0221 40.2952 39.7921 40.1969 39.6088 40.0736C39.4254 39.9502 39.2871 39.8069 39.1938 39.6436C39.1038 39.4836 39.0588 39.3152 39.0588 39.1386C39.0588 38.8886 39.1371 38.6769 39.2938 38.5036C39.4504 38.3302 39.6654 38.1919 39.9388 38.0886C39.7888 38.0219 39.6688 37.9336 39.5788 37.8236C39.4921 37.7102 39.4488 37.5586 39.4488 37.3686C39.4488 37.2952 39.4621 37.2202 39.4888 37.1436C39.5154 37.0636 39.5554 36.9852 39.6088 36.9086C39.6654 36.8286 39.7338 36.7536 39.8138 36.6836C39.8938 36.6136 39.9871 36.5519 40.0938 36.4986C39.8438 36.3586 39.6488 36.1736 39.5088 35.9436C39.3688 35.7102 39.2988 35.4402 39.2988 35.1336C39.2988 34.8869 39.3454 34.6636 39.4388 34.4636C39.5354 34.2602 39.6688 34.0886 39.8388 33.9486C40.0088 33.8052 40.2104 33.6952 40.4438 33.6186C40.6804 33.5419 40.9388 33.5036 41.2188 33.5036C41.4388 33.5036 41.6438 33.5286 41.8338 33.5786C42.0238 33.6252 42.1971 33.6952 42.3538 33.7886H43.7288Z" fill="#585D62"/>
<path d="M27.1723 5.97319C27.3571 5.97314 27.5361 6.02961 27.678 6.13276C27.82 6.23592 27.9159 6.37923 27.9492 6.53773L27.9618 6.66165V10.7924C27.962 11.5859 27.6478 12.3552 27.0723 12.9699C26.4968 13.5846 25.6954 14.0071 24.8038 14.1658V24.5615C24.8041 24.7336 24.7306 24.8995 24.5977 25.0266C24.4648 25.1538 24.2821 25.2329 24.0856 25.2484C23.8891 25.264 23.6931 25.2148 23.5361 25.1106C23.3791 25.0064 23.2725 24.8547 23.2374 24.6854L23.2247 24.5615V14.1658C22.3786 14.0149 21.6126 13.6264 21.0439 13.0596C20.4752 12.4928 20.1353 11.7791 20.0761 11.0278L20.0667 10.7924V6.66165C20.0663 6.48961 20.1398 6.32369 20.2727 6.19655C20.4057 6.06942 20.5883 5.99029 20.7848 5.97474C20.9813 5.9592 21.1774 6.00836 21.3344 6.11256C21.4913 6.21676 21.5979 6.36844 21.6331 6.53773L21.6457 6.66165V10.7924C21.6454 11.2197 21.7972 11.6365 22.08 11.9855C22.3628 12.3344 22.7627 12.5983 23.2247 12.7407V6.66165C23.2244 6.48961 23.2979 6.32369 23.4308 6.19655C23.5637 6.06942 23.7464 5.99029 23.9429 5.97474C24.1394 5.9592 24.3354 6.00836 24.4924 6.11256C24.6494 6.21676 24.756 6.36844 24.7911 6.53773L24.8038 6.66165V12.7393C25.6533 12.4777 26.2802 11.8058 26.3718 10.9976L26.3828 10.7924V6.66165C26.3828 6.47906 26.466 6.30395 26.614 6.17484C26.7621 6.04573 26.9629 5.97319 27.1723 5.97319ZM35.0675 5.97319C35.2523 5.97314 35.4313 6.02961 35.5732 6.13276C35.7152 6.23592 35.8111 6.37923 35.8444 6.53773L35.857 6.66165V24.5615C35.8574 24.7336 35.7839 24.8995 35.651 25.0266C35.518 25.1538 35.3353 25.2329 35.1389 25.2484C34.9424 25.264 34.7463 25.2148 34.5893 25.1106C34.4323 25.0064 34.3258 24.8547 34.2906 24.6854L34.278 24.5615V16.9885H31.9094C31.7247 16.9886 31.5457 16.9321 31.4037 16.8289C31.2618 16.7258 31.1658 16.5825 31.1326 16.424L31.1199 16.3V9.41548C31.1199 8.50253 31.5358 7.62697 32.2761 6.98141C33.0165 6.33586 34.0205 5.97319 35.0675 5.97319Z" fill="#585D62"/>
</svg>
