<svg width="106" height="115" viewBox="0 0 106 115" fill="none" xmlns="http://www.w3.org/2000/svg">
<rect opacity="0.7" width="106" height="115" fill="#A225F0" fill-opacity="0.25"/>
<g opacity="0.7" clip-path="url(#clip0_12_18540)">
<path d="M53.4597 70.27C60.91 70.27 66.9497 64.2304 66.9497 56.78C66.9497 49.3297 60.91 43.29 53.4597 43.29C46.0094 43.29 39.9697 49.3297 39.9697 56.78C39.9697 64.2304 46.0094 70.27 53.4597 70.27Z" stroke="#9300F2" stroke-width="2" stroke-miterlimit="10"/>
<path d="M52.46 43.3001L53.46 29.8101L54.46 43.3001H52.46Z" fill="#9300F2"/>
<path d="M62.5205 46.4799L73.2105 38.2L63.8605 47.97L62.5205 46.4799Z" fill="#9300F2"/>
<path d="M67.4404 55.28L80.9404 56.12L67.4604 57.28L67.4404 55.28Z" fill="#9300F2"/>
<path d="M64.2796 64.8L73.3096 74.8601L62.8896 66.2401L64.2796 64.8Z" fill="#9300F2"/>
<path d="M53.9697 70.05L52.7097 83.51L51.9697 70.01L53.9697 70.05Z" fill="#9300F2"/>
<path d="M43.9701 66.6699L33.1201 74.7399L42.6601 65.1599L43.9701 66.6699Z" fill="#9300F2"/>
<path d="M39.2202 57.78L25.7402 56.68L39.2402 55.78L39.2202 57.78Z" fill="#9300F2"/>
<path d="M42.5705 48.3201L33.7305 38.0901L43.9805 46.9101L42.5705 48.3201Z" fill="#9300F2"/>
<path d="M65.4004 26.8899C70.5204 22.5099 81.8404 16.9999 86.6904 24.3699C89.6504 30.0599 86.5204 37.5499 83.5204 42.5799L83.3304 42.5099C84.4104 39.4299 85.3804 36.2799 85.8504 33.0499C87.2404 24.3399 82.8004 21.0699 74.5504 23.3699C71.4004 24.2099 68.3704 25.5199 65.5004 27.0599L65.4004 26.8899Z" fill="#D65BF4"/>
<path d="M83.5901 43.1599C91.0901 44.8999 104.59 52.8699 97.5402 61.7999C93.7302 65.6799 88.3002 66.9399 83.2102 67.4099L83.1602 67.2199C88.0602 65.6099 93.7402 64.0499 96.8102 59.6099C99.2702 55.2999 95.1202 51.0299 91.8902 48.4999C89.3102 46.4799 86.4701 44.7799 83.5201 43.3399L83.6002 43.1599H83.5901Z" fill="#D65BF4"/>
<path d="M82.8504 67.7C87.2304 71.47 93.0504 79.35 89.2804 85.23C84.5604 91.05 73.8904 88.0199 68.1504 85.4199L68.2004 85.23C71.7304 86.01 75.3204 86.6299 78.9304 86.7799C86.5304 87.0099 90.7504 83.96 87.5604 76.12C86.3604 73.15 84.6404 70.38 82.7004 67.83L82.8604 67.7H82.8504Z" fill="#D65BF4"/>
<path d="M67.5296 85.5199C66.1196 93.1599 58.8496 105.16 49.7296 99.9899C45.3296 97.0599 43.2196 91.9699 42.1396 87.1299L42.3196 87.0499C44.3196 91.2699 46.5596 95.8399 50.6596 98.3599C55.1596 101.08 59.9297 97.2799 62.5597 93.6699C64.4897 91.1499 66.0596 88.3499 67.3496 85.4399L67.5296 85.5199Z" fill="#D65BF4"/>
<path d="M40.72 87.8101C35.06 92.3801 21.86 98.0701 18 88.5801C16.28 82.6301 19.2 76.2601 22.24 71.3501L22.43 71.4201C20.94 75.3501 19.58 79.4001 19.29 83.6101C18.8 91.5401 24.66 92.8601 31.18 91.2001C34.45 90.4101 37.61 89.1501 40.62 87.6401L40.71 87.8201L40.72 87.8101Z" fill="#D65BF4"/>
<path d="M22.1801 70.7399C14.5501 68.7999 0.580063 60.3099 8.21006 51.3199C12.1401 47.5399 17.9401 46.2799 23.1401 45.9299L23.1901 46.1199C18.4001 47.5099 13.1901 48.9299 9.60006 52.5799C5.52006 56.9199 10.0101 62.2599 13.6901 65.1099C16.3301 67.2299 19.2401 69.0299 22.2601 70.5699L22.1701 70.7499L22.1801 70.7399Z" fill="#D65BF4"/>
<path d="M23.5201 45.65C16.4701 39.74 10.5401 25.83 24.1901 24.44C29.3901 24.18 34.5801 25.66 39.2201 27.85L39.1701 28.04C35.1401 27.09 31.0201 26.24 26.8701 26.2C19.4601 26.02 15.9301 29.61 18.8001 36.88C19.9801 39.98 21.7201 42.86 23.6801 45.53L23.5201 45.65Z" fill="#D65BF4"/>
<path d="M39.8604 27.75C41.5904 19.94 49.3603 7.95 58.6203 13.35C63.1203 16.4 65.2404 21.68 66.2904 26.68L66.1104 26.76C64.1204 22.37 61.8703 17.62 57.6703 14.98C53.0803 12.13 48.0604 15.86 45.2304 19.5C43.1604 22.04 41.4504 24.88 40.0404 27.84L39.8604 27.76V27.75Z" fill="#D65BF4"/>
</g>
<defs>
<clipPath id="clip0_12_18540">
<rect width="93.52" height="89.25" fill="white" transform="translate(6 12)"/>
</clipPath>
</defs>
</svg>
