<svg width="106" height="113" viewBox="0 0 106 113" fill="none" xmlns="http://www.w3.org/2000/svg">
<path opacity="0.7" d="M0 0H106V113H0V0Z" fill="#E6CDE9"/>
<g opacity="0.7" clip-path="url(#clip0_24_20344)">
<path d="M53.4602 69.27C60.9105 69.27 66.9502 63.2304 66.9502 55.78C66.9502 48.3297 60.9105 42.29 53.4602 42.29C46.0099 42.29 39.9702 48.3297 39.9702 55.78C39.9702 63.2304 46.0099 69.27 53.4602 69.27Z" stroke="#9300F2" stroke-width="2" stroke-miterlimit="10"/>
<path d="M52.46 42.3001L53.46 28.8101L54.46 42.3001H52.46Z" fill="#9300F2"/>
<path d="M62.52 45.4799L73.21 37.2L63.86 46.97L62.52 45.4799Z" fill="#9300F2"/>
<path d="M67.4399 54.28L80.9399 55.12L67.4599 56.28L67.4399 54.28Z" fill="#9300F2"/>
<path d="M64.2801 63.8L73.3101 73.8601L62.8901 65.2401L64.2801 63.8Z" fill="#9300F2"/>
<path d="M53.9702 69.05L52.7102 82.51L51.9702 69.01L53.9702 69.05Z" fill="#9300F2"/>
<path d="M43.9701 65.6699L33.1201 73.7399L42.6601 64.1599L43.9701 65.6699Z" fill="#9300F2"/>
<path d="M39.2202 56.78L25.7402 55.68L39.2402 54.78L39.2202 56.78Z" fill="#9300F2"/>
<path d="M42.57 47.3201L33.73 37.0901L43.98 45.9101L42.57 47.3201Z" fill="#9300F2"/>
<path d="M65.3999 25.8899C70.5199 21.5099 81.8399 15.9999 86.6899 23.3699C89.6499 29.0599 86.5199 36.5499 83.5199 41.5799L83.3299 41.5099C84.4099 38.4299 85.3799 35.2799 85.8499 32.0499C87.2399 23.3399 82.7999 20.0699 74.5499 22.3699C71.3999 23.2099 68.3699 24.5199 65.4999 26.0599L65.3999 25.8899Z" fill="#D65BF4"/>
<path d="M83.5901 42.1599C91.0901 43.8999 104.59 51.8699 97.5402 60.7999C93.7302 64.6799 88.3002 65.9399 83.2102 66.4099L83.1602 66.2199C88.0602 64.6099 93.7402 63.0499 96.8102 58.6099C99.2702 54.2999 95.1202 50.0299 91.8902 47.4999C89.3102 45.4799 86.4701 43.7799 83.5201 42.3399L83.6002 42.1599H83.5901Z" fill="#D65BF4"/>
<path d="M82.8499 66.7C87.2299 70.47 93.0499 78.35 89.2799 84.23C84.5599 90.05 73.8899 87.0199 68.1499 84.4199L68.1999 84.23C71.7299 85.01 75.3199 85.6299 78.9299 85.7799C86.5299 86.0099 90.7499 82.96 87.5599 75.12C86.3599 72.15 84.6399 69.38 82.6999 66.83L82.8599 66.7H82.8499Z" fill="#D65BF4"/>
<path d="M67.5301 84.5199C66.1201 92.1599 58.8501 104.16 49.7301 98.9899C45.3301 96.0599 43.2201 90.9699 42.1401 86.1299L42.3201 86.0499C44.3201 90.2699 46.5601 94.8399 50.6601 97.3599C55.1601 100.08 59.9301 96.2799 62.5601 92.6699C64.4901 90.1499 66.0601 87.3499 67.3501 84.4399L67.5301 84.5199Z" fill="#D65BF4"/>
<path d="M40.72 86.8101C35.06 91.3801 21.86 97.0701 18 87.5801C16.28 81.6301 19.2 75.2601 22.24 70.3501L22.43 70.4201C20.94 74.3501 19.58 78.4001 19.29 82.6101C18.8 90.5401 24.66 91.8601 31.18 90.2001C34.45 89.4101 37.61 88.1501 40.62 86.6401L40.71 86.8201L40.72 86.8101Z" fill="#D65BF4"/>
<path d="M22.1801 69.7399C14.5501 67.7999 0.580063 59.3099 8.21006 50.3199C12.1401 46.5399 17.9401 45.2799 23.1401 44.9299L23.1901 45.1199C18.4001 46.5099 13.1901 47.9299 9.60006 51.5799C5.52006 55.9199 10.0101 61.2599 13.6901 64.1099C16.3301 66.2299 19.2401 68.0299 22.2601 69.5699L22.1701 69.7499L22.1801 69.7399Z" fill="#D65BF4"/>
<path d="M23.5201 44.65C16.4701 38.74 10.5401 24.83 24.1901 23.44C29.3901 23.18 34.5801 24.66 39.2201 26.85L39.1701 27.04C35.1401 26.09 31.0201 25.24 26.8701 25.2C19.4601 25.02 15.9301 28.61 18.8001 35.88C19.9801 38.98 21.7201 41.86 23.6801 44.53L23.5201 44.65Z" fill="#D65BF4"/>
<path d="M39.8599 26.75C41.5899 18.94 49.3599 6.95 58.6199 12.35C63.1199 15.4 65.2399 20.68 66.2899 25.68L66.1099 25.76C64.1199 21.37 61.8699 16.62 57.6699 13.98C53.0799 11.13 48.0599 14.86 45.2299 18.5C43.1599 21.04 41.4499 23.88 40.0399 26.84L39.8599 26.76V26.75Z" fill="#D65BF4"/>
</g>
<defs>
<clipPath id="clip0_24_20344">
<rect width="93.52" height="89.25" fill="white" transform="translate(6 11)"/>
</clipPath>
</defs>
</svg>
