<svg width="121" height="126" viewBox="0 0 121 126" fill="none" xmlns="http://www.w3.org/2000/svg">
<g filter="url(#filter0_d_336_5047)">
<rect x="4" width="113" height="118" rx="56.5" fill="#AFCB8C"/>
</g>
<path d="M61.6287 72.1068C68.3206 72.1068 73.7455 66.0841 73.7455 58.6546C73.7455 51.2252 68.3206 45.2024 61.6287 45.2024C54.9368 45.2024 49.512 51.2252 49.512 58.6546C49.512 66.0841 54.9368 72.1068 61.6287 72.1068Z" stroke="#006D1C" stroke-width="2" stroke-miterlimit="10"/>
<path d="M60.7305 45.2125L61.6287 31.7603L62.5269 45.2125H60.7305Z" fill="#006D1C"/>
<path d="M69.7665 48.3835L79.3683 40.1267L70.9701 49.8693L69.7665 48.3835Z" fill="#006D1C"/>
<path d="M74.1856 57.1589L86.3114 57.9966L74.2036 59.1533L74.1856 57.1589Z" fill="#006D1C"/>
<path d="M71.3473 66.6521L79.4581 76.6839L70.0988 68.0881L71.3473 66.6521Z" fill="#006D1C"/>
<path d="M62.0868 71.8875L60.9551 85.3098L60.2904 71.8477L62.0868 71.8875Z" fill="#006D1C"/>
<path d="M53.1048 68.517L43.3593 76.5644L51.9281 67.0112L53.1048 68.517Z" fill="#006D1C"/>
<path d="M48.8383 59.6519L36.7305 58.555L48.8563 57.6575L48.8383 59.6519Z" fill="#006D1C"/>
<path d="M51.8473 50.2184L43.9072 40.0171L53.1138 48.8124L51.8473 50.2184Z" fill="#006D1C"/>
<path d="M72.3533 28.8483C76.9521 24.4806 87.1197 18.986 91.476 26.3354C94.1347 32.0095 91.3233 39.4785 88.6287 44.4944L88.4581 44.4246C89.4281 41.3532 90.2994 38.212 90.7215 34.9911C91.97 26.3055 87.982 23.0446 80.5718 25.3382C77.7425 26.1758 75.0209 27.4822 72.4431 29.0179L72.3533 28.8483Z" fill="#006D1C"/>
<path d="M88.6916 45.0728C95.4281 46.8079 107.554 54.7556 101.222 63.6605C97.7994 67.5297 92.9221 68.7861 88.3503 69.2548L88.3054 69.0654C92.7066 67.4599 97.8083 65.9042 100.566 61.4767C102.775 57.1787 99.0479 52.9207 96.1467 50.3978C93.8293 48.3835 91.2784 46.6882 88.6287 45.2523L88.7006 45.0728H88.6916Z" fill="#006D1C"/>
<path d="M88.027 69.5439C91.9611 73.3034 97.1886 81.1613 93.8024 87.0248C89.5629 92.8285 79.9791 89.807 74.8234 87.2143L74.8683 87.0248C78.0389 87.8027 81.2635 88.4209 84.506 88.5705C91.3323 88.7999 95.1228 85.7584 92.2575 77.9404C91.1796 74.9787 89.6347 72.2164 87.8922 69.6736L88.0359 69.5439H88.027Z" fill="#006D1C"/>
<path d="M74.2664 87.3141C73 94.9327 66.47 106.899 58.2784 101.744C54.3263 98.8218 52.4311 93.7461 51.4611 88.9196L51.6227 88.8399C53.4191 93.048 55.4311 97.6052 59.1138 100.118C63.1557 102.831 67.4401 99.0412 69.8024 95.4413C71.5359 92.9284 72.9461 90.1362 74.1048 87.2344L74.2664 87.3141Z" fill="#006D1C"/>
<path d="M50.1856 89.5977C45.1018 94.1549 33.2455 99.829 29.7785 90.3656C28.2335 84.4322 30.8563 78.0801 33.5868 73.1838L33.7575 73.2536C32.4192 77.1726 31.1976 81.2113 30.9371 85.4095C30.497 93.3173 35.7605 94.6336 41.6168 92.9782C44.5539 92.1904 47.3922 90.934 50.0958 89.4282L50.1767 89.6077L50.1856 89.5977Z" fill="#006D1C"/>
<path d="M33.5329 72.5755C26.6796 70.6409 14.1317 62.1747 20.985 53.2099C24.515 49.4405 29.7245 48.184 34.3952 47.835L34.4401 48.0244C30.1377 49.4105 25.4581 50.8266 22.2335 54.4663C18.5689 58.7942 22.6018 64.1192 25.9072 66.9612C28.2784 69.0753 30.8922 70.8703 33.6048 72.4059L33.5239 72.5854L33.5329 72.5755Z" fill="#006D1C"/>
<path d="M34.7365 47.5558C28.4042 41.6624 23.0778 27.7913 35.3383 26.4052C40.009 26.146 44.6706 27.6218 48.8383 29.8057L48.7934 29.9951C45.1736 29.0478 41.473 28.2002 37.7455 28.1603C31.0898 27.9808 27.9191 31.5607 30.497 38.8104C31.5569 41.9017 33.1197 44.7736 34.8802 47.4362L34.7365 47.5558Z" fill="#006D1C"/>
<path d="M49.4131 29.7059C50.967 21.9178 57.9461 9.96134 66.2634 15.3462C70.3054 18.3877 72.2096 23.6529 73.1527 28.6389L72.991 28.7186C71.2036 24.3409 69.1826 19.6043 65.4102 16.9716C61.2874 14.1296 56.7784 17.8492 54.2365 21.479C52.3772 24.0119 50.8413 26.8439 49.5748 29.7956L49.4131 29.7158V29.7059Z" fill="#006D1C"/>
<defs>
<filter id="filter0_d_336_5047" x="0" y="0" width="121" height="126" filterUnits="userSpaceOnUse" color-interpolation-filters="sRGB">
<feFlood flood-opacity="0" result="BackgroundImageFix"/>
<feColorMatrix in="SourceAlpha" type="matrix" values="0 0 0 0 0 0 0 0 0 0 0 0 0 0 0 0 0 0 127 0" result="hardAlpha"/>
<feOffset dy="4"/>
<feGaussianBlur stdDeviation="2"/>
<feComposite in2="hardAlpha" operator="out"/>
<feColorMatrix type="matrix" values="0 0 0 0 0 0 0 0 0 0 0 0 0 0 0 0 0 0 0.25 0"/>
<feBlend mode="normal" in2="BackgroundImageFix" result="effect1_dropShadow_336_5047"/>
<feBlend mode="normal" in="SourceGraphic" in2="effect1_dropShadow_336_5047" result="shape"/>
</filter>
</defs>
</svg>
