<svg width="121" height="113" viewBox="0 0 121 113" fill="none" xmlns="http://www.w3.org/2000/svg">
<rect width="121" height="113" fill="#F5E7C6"/>
<g opacity="0.7" clip-path="url(#clip0_12_18542)">
<path d="M59.5203 77.75C71.5269 77.75 81.2603 68.0167 81.2603 56.01C81.2603 44.0033 71.5269 34.27 59.5203 34.27C47.5136 34.27 37.7803 44.0033 37.7803 56.01C37.7803 68.0167 47.5136 77.75 59.5203 77.75Z" stroke="#F5AF00" stroke-width="2" stroke-miterlimit="10"/>
<path d="M70.6104 37.53C81.1804 44.57 82.8504 54.52 75.4104 64.73C69.4504 72.9 57.9004 74.77 49.6104 68.9C42.9704 64.21 41.4604 55.11 46.2204 48.57C50.0304 43.34 57.4304 42.15 62.7304 45.9C66.9804 48.9 67.9504 54.73 64.9004 58.91C62.4604 62.26 57.7304 63.02 54.3304 60.62C51.6104 58.7 50.9904 54.97 52.9404 52.29C54.5004 50.15 57.5304 49.66 59.7004 51.2C61.4404 52.43 61.8404 54.82 60.5904 56.53C59.5904 57.9 57.6504 58.21 56.2604 57.23" stroke="#F5AF00" stroke-miterlimit="10"/>
<path d="M69.5303 30.4101L75.8903 19.3601L71.3403 31.2701L69.5303 30.4101Z" fill="#F5AF00"/>
<path d="M58.54 28.58L59.98 8L60.54 28.62L58.54 28.58Z" fill="#F5AF00"/>
<path d="M86.8598 55L107.46 56.26L86.8398 57L86.8598 55Z" fill="#F5AF00"/>
<path d="M79.3301 35.8499L95.1701 22.6299L80.6901 37.3199L79.3301 35.8499Z" fill="#F5AF00"/>
<path d="M86.1797 44.8499L98.1397 40.4099L87.0297 46.6599L86.1797 44.8499Z" fill="#F5AF00"/>
<path d="M48.1196 31.2501L43.5596 19.3401L49.9196 30.3901L48.1196 31.2501Z" fill="#F5AF00"/>
<path d="M32.62 56.98L12 56.24L32.59 54.98L32.62 56.98Z" fill="#F5AF00"/>
<path d="M38.77 37.3001L24.29 22.6001L40.12 35.8301L38.77 37.3001Z" fill="#F5AF00"/>
<path d="M32.4303 46.6399L21.3203 40.3899L33.2703 44.8299L32.4303 46.6399Z" fill="#F5AF00"/>
<path d="M71.3703 80.79L75.9303 92.7L69.5703 81.65L71.3703 80.79Z" fill="#F5AF00"/>
<path d="M60.5801 83.4399L60.0101 104.06L58.5801 83.4799L60.5801 83.4399Z" fill="#F5AF00"/>
<path d="M80.7204 74.74L95.2003 89.44L79.3604 76.21L80.7204 74.74Z" fill="#F5AF00"/>
<path d="M87.0597 65.3999L98.1697 71.6499L86.2197 67.2099L87.0597 65.3999Z" fill="#F5AF00"/>
<path d="M49.9596 81.6701L43.5996 92.7201L48.1496 80.8101L49.9596 81.6701Z" fill="#F5AF00"/>
<path d="M40.1603 76.23L24.3203 89.46L38.8003 74.76L40.1603 76.23Z" fill="#F5AF00"/>
<path d="M33.2996 67.2299L21.3496 71.6699L32.4596 65.4199L33.2996 67.2299Z" fill="#F5AF00"/>
</g>
<defs>
<clipPath id="clip0_12_18542">
<rect width="95.46" height="96.06" fill="white" transform="translate(12 8)"/>
</clipPath>
</defs>
</svg>
