<svg width="106" height="113" viewBox="0 0 106 113" fill="none" xmlns="http://www.w3.org/2000/svg">
<path opacity="0.7" d="M0 0H106V113H0V0Z" fill="#F5E7C6"/>
<g opacity="0.7" clip-path="url(#clip0_24_20343)">
<path d="M52.5198 77.75C64.5265 77.75 74.2598 68.0167 74.2598 56.01C74.2598 44.0033 64.5265 34.27 52.5198 34.27C40.5131 34.27 30.7798 44.0033 30.7798 56.01C30.7798 68.0167 40.5131 77.75 52.5198 77.75Z" stroke="#F5AF00" stroke-width="2" stroke-miterlimit="10"/>
<path d="M63.6099 37.53C74.1799 44.57 75.8499 54.52 68.4099 64.73C62.4499 72.9 50.8999 74.77 42.6099 68.9C35.9699 64.21 34.4599 55.11 39.2199 48.57C43.0299 43.34 50.4299 42.15 55.7299 45.9C59.9799 48.9 60.9499 54.73 57.8999 58.91C55.4599 62.26 50.7299 63.02 47.3299 60.62C44.6099 58.7 43.9899 54.97 45.9399 52.29C47.4999 50.15 50.5299 49.66 52.6999 51.2C54.4399 52.43 54.8399 54.82 53.5899 56.53C52.5899 57.9 50.6499 58.21 49.2599 57.23" stroke="#F5AF00" stroke-miterlimit="10"/>
<path d="M62.5298 30.4101L68.8898 19.3601L64.3398 31.2701L62.5298 30.4101Z" fill="#F5AF00"/>
<path d="M51.54 28.58L52.98 8L53.54 28.62L51.54 28.58Z" fill="#F5AF00"/>
<path d="M79.8598 55L100.46 56.26L79.8398 57L79.8598 55Z" fill="#F5AF00"/>
<path d="M72.3301 35.8499L88.1701 22.6299L73.6901 37.3199L72.3301 35.8499Z" fill="#F5AF00"/>
<path d="M79.1802 44.8499L91.1402 40.4099L80.0302 46.6599L79.1802 44.8499Z" fill="#F5AF00"/>
<path d="M41.1201 31.2501L36.5601 19.3401L42.9201 30.3901L41.1201 31.2501Z" fill="#F5AF00"/>
<path d="M25.62 56.98L5 56.24L25.59 54.98L25.62 56.98Z" fill="#F5AF00"/>
<path d="M31.77 37.3001L17.29 22.6001L33.12 35.8301L31.77 37.3001Z" fill="#F5AF00"/>
<path d="M25.4298 46.6399L14.3198 40.3899L26.2698 44.8299L25.4298 46.6399Z" fill="#F5AF00"/>
<path d="M64.3698 80.79L68.9298 92.7L62.5698 81.65L64.3698 80.79Z" fill="#F5AF00"/>
<path d="M53.5801 83.4399L53.0101 104.06L51.5801 83.4799L53.5801 83.4399Z" fill="#F5AF00"/>
<path d="M73.7199 74.74L88.1999 89.44L72.3599 76.21L73.7199 74.74Z" fill="#F5AF00"/>
<path d="M80.0602 65.3999L91.1702 71.6499L79.2202 67.2099L80.0602 65.3999Z" fill="#F5AF00"/>
<path d="M42.9601 81.6701L36.6001 92.7201L41.1501 80.8101L42.9601 81.6701Z" fill="#F5AF00"/>
<path d="M33.1598 76.23L17.3198 89.46L31.7998 74.76L33.1598 76.23Z" fill="#F5AF00"/>
<path d="M26.3001 67.2299L14.3501 71.6699L25.4601 65.4199L26.3001 67.2299Z" fill="#F5AF00"/>
</g>
<defs>
<clipPath id="clip0_24_20343">
<rect width="95.46" height="96.06" fill="white" transform="translate(5 8)"/>
</clipPath>
</defs>
</svg>
