<svg width="121" height="126" viewBox="0 0 121 126" fill="none" xmlns="http://www.w3.org/2000/svg">
<g filter="url(#filter0_d_336_5046)">
<rect x="4" width="113" height="118" rx="56.5" fill="#FFE866"/>
</g>
<path d="M60.313 81.2541C71.0041 81.2541 79.6709 71.7295 79.6709 59.9803C79.6709 48.2311 71.0041 38.7065 60.313 38.7065C49.622 38.7065 40.9552 48.2311 40.9552 59.9803C40.9552 71.7295 49.622 81.2541 60.313 81.2541Z" stroke="#D79900" stroke-width="2" stroke-miterlimit="10"/>
<path d="M70.1879 41.8967C79.5997 48.7858 81.0867 58.5224 74.4619 68.5134C69.155 76.5082 58.8706 78.3381 51.4889 72.594C45.5765 68.0046 44.232 59.0997 48.4704 52.7C51.8629 47.5821 58.4521 46.4177 63.1713 50.0872C66.9556 53.0229 67.8193 58.7279 65.1036 62.8182C62.9309 66.0964 58.7192 66.8401 55.6918 64.4916C53.2698 62.6127 52.7177 58.9627 54.4541 56.3402C55.8431 54.2461 58.5411 53.7666 60.4733 55.2736C62.0227 56.4772 62.3788 58.8159 61.2658 60.4893C60.3754 61.8299 58.648 62.1332 57.4103 61.1743" stroke="#D79900" stroke-miterlimit="10"/>
<path d="M69.2262 34.9295L74.8893 24.1165L70.8379 35.771L69.2262 34.9295Z" fill="#D79900"/>
<path d="M59.4404 33.1387L60.7226 13L61.2213 33.1778L59.4404 33.1387Z" fill="#D79900"/>
<path d="M84.6572 58.9922L103 60.2252L84.6394 60.9493L84.6572 58.9922Z" fill="#D79900"/>
<path d="M77.9524 40.2527L92.0567 27.3162L79.1634 41.6911L77.9524 40.2527Z" fill="#D79900"/>
<path d="M84.0518 49.0599L94.7012 44.7151L84.8086 50.8311L84.0518 49.0599Z" fill="#D79900"/>
<path d="M50.1621 35.7515L46.1018 24.0969L51.7649 34.91L50.1621 35.7515Z" fill="#D79900"/>
<path d="M36.3606 60.9295L18 60.2054L36.3339 58.9724L36.3606 60.9295Z" fill="#D79900"/>
<path d="M41.8367 41.6716L28.9434 27.2869L43.0388 40.2331L41.8367 41.6716Z" fill="#D79900"/>
<path d="M36.1913 50.8113L26.2987 44.6953L36.9393 49.0401L36.1913 50.8113Z" fill="#D79900"/>
<path d="M70.8646 84.229L74.9249 95.8836L69.2618 85.0706L70.8646 84.229Z" fill="#D79900"/>
<path d="M61.2568 86.8223L60.7493 107L59.476 86.8614L61.2568 86.8223Z" fill="#D79900"/>
<path d="M79.19 78.3088L92.0833 92.6936L77.979 79.7473L79.19 78.3088Z" fill="#D79900"/>
<path d="M84.8354 69.1689L94.728 75.2849L84.0874 70.9401L84.8354 69.1689Z" fill="#D79900"/>
<path d="M51.8006 85.0901L46.1375 95.9031L50.1889 84.2485L51.8006 85.0901Z" fill="#D79900"/>
<path d="M43.0744 79.7668L28.9701 92.7131L41.8635 78.3284L43.0744 79.7668Z" fill="#D79900"/>
<path d="M36.966 70.9599L26.3254 75.3047L36.2181 69.1887L36.966 70.9599Z" fill="#D79900"/>
<defs>
<filter id="filter0_d_336_5046" x="0" y="0" width="121" height="126" filterUnits="userSpaceOnUse" color-interpolation-filters="sRGB">
<feFlood flood-opacity="0" result="BackgroundImageFix"/>
<feColorMatrix in="SourceAlpha" type="matrix" values="0 0 0 0 0 0 0 0 0 0 0 0 0 0 0 0 0 0 127 0" result="hardAlpha"/>
<feOffset dy="4"/>
<feGaussianBlur stdDeviation="2"/>
<feComposite in2="hardAlpha" operator="out"/>
<feColorMatrix type="matrix" values="0 0 0 0 0 0 0 0 0 0 0 0 0 0 0 0 0 0 0.25 0"/>
<feBlend mode="normal" in2="BackgroundImageFix" result="effect1_dropShadow_336_5046"/>
<feBlend mode="normal" in="SourceGraphic" in2="effect1_dropShadow_336_5046" result="shape"/>
</filter>
</defs>
</svg>
