<svg width="121" height="126" viewBox="0 0 121 126" fill="none" xmlns="http://www.w3.org/2000/svg">
<g filter="url(#filter0_d_336_5044)">
<rect x="4" width="113" height="118" rx="56.5" fill="#ACCBFF"/>
</g>
<path d="M59.6573 62.1636L60.3157 16L60.974 62.1636H59.6573Z" fill="#1866E2"/>
<path d="M60.0524 25.8134L67.3818 20.0378L60.8687 27.0094L60.0524 25.8134Z" fill="#1866E2"/>
<path d="M60.2015 40.6765L73.8598 28.696L61.0266 41.8725L60.2015 40.6765Z" fill="#1866E2"/>
<path d="M59.7714 27.5204L53.2495 20.5488L60.5877 26.3244L59.7714 27.5204Z" fill="#1866E2"/>
<path d="M59.6046 42.3733L46.7803 29.207L60.4385 41.1875L59.6046 42.3733Z" fill="#1866E2"/>
<path d="M60.5878 61.4479L99.7015 39.1226L61.1847 62.8074L60.5878 61.4479Z" fill="#1866E2"/>
<path d="M90.836 43.876L99.8245 47.1369L90.5288 45.3684L90.836 43.876Z" fill="#1866E2"/>
<path d="M77.9326 51.696L95.6198 57.0423L77.6517 53.1885L77.9326 51.696Z" fill="#1866E2"/>
<path d="M89.4579 44.4689L92.0737 35.5449L90.7307 44.8369L89.4579 44.4689Z" fill="#1866E2"/>
<path d="M76.4053 52.0129L81.1716 34.5942L77.6781 52.4116L76.4053 52.0129Z" fill="#1866E2"/>
<path d="M61.1057 61.6321L100 84.1619L60.5352 63.0121L61.1057 61.6321Z" fill="#1866E2"/>
<path d="M91.3364 78.9177L92.9252 88.1791L90.0636 79.3368L91.3364 78.9177Z" fill="#1866E2"/>
<path d="M78.0731 71.6907L82.0494 89.4262L76.8179 72.1405L78.0731 71.6907Z" fill="#1866E2"/>
<path d="M90.2216 77.8956L99.4558 75.8921L90.5551 79.3779L90.2216 77.8956Z" fill="#1866E2"/>
<path d="M77.1251 70.4129L94.9879 66.0889L77.4411 71.9053L77.1251 70.4129Z" fill="#1866E2"/>
<path d="M61.2725 62.1738L60.2718 108L59.9558 62.1533L61.2725 62.1738Z" fill="#1866E2"/>
<path d="M60.6141 98.1969L53.2407 103.911L59.8065 96.9805L60.6141 98.1969Z" fill="#1866E2"/>
<path d="M60.579 83.3234L46.833 95.2017L59.7539 82.1274L60.579 83.3234Z" fill="#1866E2"/>
<path d="M60.9037 96.4795L67.3729 103.502L60.0786 97.6755L60.9037 96.4795Z" fill="#1866E2"/>
<path d="M61.1847 81.6267L73.9125 94.8952L60.342 82.8125L61.1847 81.6267Z" fill="#1866E2"/>
<path d="M60.8511 62.2658L21.0702 84.5911L60.263 60.896L60.8511 62.2658Z" fill="#1866E2"/>
<path d="M29.9709 79.8991L21 76.5769L30.2781 78.4067L29.9709 79.8991Z" fill="#1866E2"/>
<path d="M42.9269 72.1812L25.2836 66.6919L43.2253 70.6786L42.9269 72.1812Z" fill="#1866E2"/>
<path d="M31.349 79.3267L28.663 88.22L30.0762 78.9382L31.349 79.3267Z" fill="#1866E2"/>
<path d="M44.4629 71.8747L39.5649 89.2525L43.1902 71.4556L44.4629 71.8747Z" fill="#1866E2"/>
<path d="M59.5432 62.2044L21.1053 39.552L60.1226 60.8244L59.5432 62.2044Z" fill="#1866E2"/>
<path d="M29.7339 44.8572L28.2153 35.5857L31.0067 44.4484L29.7339 44.8572Z" fill="#1866E2"/>
<path d="M42.9444 52.1764L39.0997 34.4204L44.1996 51.7369L42.9444 52.1764Z" fill="#1866E2"/>
<path d="M30.8399 45.8897L21.5881 47.8319L30.5151 44.3972L30.8399 45.8897Z" fill="#1866E2"/>
<path d="M43.8748 53.4644L25.9857 57.6555L43.5676 51.9719L43.8748 53.4644Z" fill="#1866E2"/>
<defs>
<filter id="filter0_d_336_5044" x="0" y="0" width="121" height="126" filterUnits="userSpaceOnUse" color-interpolation-filters="sRGB">
<feFlood flood-opacity="0" result="BackgroundImageFix"/>
<feColorMatrix in="SourceAlpha" type="matrix" values="0 0 0 0 0 0 0 0 0 0 0 0 0 0 0 0 0 0 127 0" result="hardAlpha"/>
<feOffset dy="4"/>
<feGaussianBlur stdDeviation="2"/>
<feComposite in2="hardAlpha" operator="out"/>
<feColorMatrix type="matrix" values="0 0 0 0 0 0 0 0 0 0 0 0 0 0 0 0 0 0 0.25 0"/>
<feBlend mode="normal" in2="BackgroundImageFix" result="effect1_dropShadow_336_5044"/>
<feBlend mode="normal" in="SourceGraphic" in2="effect1_dropShadow_336_5044" result="shape"/>
</filter>
</defs>
</svg>
