<svg width="106" height="113" viewBox="0 0 106 113" fill="none" xmlns="http://www.w3.org/2000/svg">
<rect opacity="0.7" width="106" height="113" fill="#488DFB" fill-opacity="0.25"/>
<g opacity="0.7" clip-path="url(#clip0_12_18537)">
<path d="M52.04 56.16L52.79 11L53.54 56.16H52.04Z" fill="#297BFF"/>
<path d="M52.4902 20.6L60.8402 14.95L53.4202 21.77L52.4902 20.6Z" fill="#297BFF"/>
<path d="M52.6602 35.1399L68.2202 23.4199L53.6002 36.3099L52.6602 35.1399Z" fill="#297BFF"/>
<path d="M52.1702 22.27L44.7402 15.45L53.1002 21.1L52.1702 22.27Z" fill="#297BFF"/>
<path d="M51.9801 36.7999L37.3701 23.9199L52.9301 35.6399L51.9801 36.7999Z" fill="#297BFF"/>
<path d="M53.0996 55.4601L97.6596 33.6201L53.7796 56.7901L53.0996 55.4601Z" fill="#297BFF"/>
<path d="M87.56 38.27L97.8 41.46L87.21 39.73L87.56 38.27Z" fill="#297BFF"/>
<path d="M72.86 45.9199L93.01 51.1499L72.54 47.3799L72.86 45.9199Z" fill="#297BFF"/>
<path d="M85.9902 38.8501L88.9702 30.1201L87.4402 39.2101L85.9902 38.8501Z" fill="#297BFF"/>
<path d="M71.1201 46.2299L76.5501 29.1899L72.5701 46.6199L71.1201 46.2299Z" fill="#297BFF"/>
<path d="M53.69 55.6399L98 77.6799L53.04 56.9899L53.69 55.6399Z" fill="#297BFF"/>
<path d="M88.1297 72.55L89.9397 81.6101L86.6797 72.96L88.1297 72.55Z" fill="#297BFF"/>
<path d="M73.0198 65.48L77.5498 82.83L71.5898 65.92L73.0198 65.48Z" fill="#297BFF"/>
<path d="M86.8604 71.5501L97.3803 69.5901L87.2403 73.0001L86.8604 71.5501Z" fill="#297BFF"/>
<path d="M71.9404 64.23L92.2904 60L72.3004 65.69L71.9404 64.23Z" fill="#297BFF"/>
<path d="M53.8799 56.1699L52.7399 101L52.3799 56.1499L53.8799 56.1699Z" fill="#297BFF"/>
<path d="M53.1305 91.41L44.7305 97L52.2105 90.22L53.1305 91.41Z" fill="#297BFF"/>
<path d="M53.0897 76.8599L37.4297 88.4799L52.1497 75.6899L53.0897 76.8599Z" fill="#297BFF"/>
<path d="M53.4595 89.73L60.8295 96.6L52.5195 90.9L53.4595 89.73Z" fill="#297BFF"/>
<path d="M53.7803 75.2L68.2803 88.18L52.8203 76.36L53.7803 75.2Z" fill="#297BFF"/>
<path d="M53.4001 56.2599L8.08008 78.0999L52.7301 54.9199L53.4001 56.2599Z" fill="#297BFF"/>
<path d="M18.22 73.51L8 70.26L18.57 72.05L18.22 73.51Z" fill="#297BFF"/>
<path d="M32.9799 65.9601L12.8799 60.5901L33.3199 64.4901L32.9799 65.9601Z" fill="#297BFF"/>
<path d="M19.7905 72.9501L16.7305 81.6501L18.3405 72.5701L19.7905 72.9501Z" fill="#297BFF"/>
<path d="M34.7304 65.66L29.1504 82.66L33.2804 65.25L34.7304 65.66Z" fill="#297BFF"/>
<path d="M51.9101 56.2L8.12012 34.04L52.5701 54.85L51.9101 56.2Z" fill="#297BFF"/>
<path d="M17.9497 39.2299L16.2197 30.1599L19.3997 38.8299L17.9497 39.2299Z" fill="#297BFF"/>
<path d="M33.0001 46.39L28.6201 29.02L34.4301 45.96L33.0001 46.39Z" fill="#297BFF"/>
<path d="M19.2099 40.24L8.66992 42.14L18.8399 38.78L19.2099 40.24Z" fill="#297BFF"/>
<path d="M34.0597 47.6499L13.6797 51.7499L33.7097 46.1899L34.0597 47.6499Z" fill="#297BFF"/>
</g>
<defs>
<clipPath id="clip0_12_18537">
<rect width="90" height="90" fill="white" transform="translate(8 11)"/>
</clipPath>
</defs>
</svg>
